<?xml version="1.0" standalone="no"?>
<!DOCTYPE svg PUBLIC "-//W3C//DTD SVG 20010904//EN"
 "http://www.w3.org/TR/2001/REC-SVG-20010904/DTD/svg10.dtd">
<svg version="1.0" xmlns="http://www.w3.org/2000/svg"
 width="1280.000000pt" height="1280.000000pt" viewBox="0 0 1280.000000 1280.000000"
 preserveAspectRatio="xMidYMid meet">

<g transform="translate(0.000000,1280.000000) scale(0.100000,-0.100000)"
fill="#000000" stroke="none">
<path d="M6407 9604 c-4 -4 -7 -373 -7 -821 l0 -813 40 0 40 0 -2 818 -3 817
-30 3 c-17 2 -34 0 -38 -4z"/>
<path d="M5318 8774 c-16 -8 -28 -17 -28 -21 0 -3 75 -151 166 -327 264 -509
296 -570 304 -579 7 -8 70 18 70 28 0 3 -42 85 -93 183 -52 97 -158 302 -238
454 -79 153 -146 278 -149 278 -3 -1 -17 -8 -32 -16z"/>
<path d="M7417 8773 c-3 -5 -64 -154 -137 -333 -73 -179 -157 -383 -186 -454
-30 -71 -51 -133 -47 -137 5 -5 22 -11 39 -15 l30 -6 188 462 c103 254 186
463 184 465 -10 8 -48 25 -57 25 -5 0 -12 -3 -14 -7z"/>
<path d="M8419 8343 c-130 -153 -304 -357 -386 -453 -82 -96 -215 -253 -297
-349 l-147 -174 25 -25 c21 -22 27 -23 41 -12 8 7 113 128 233 268 383 450
797 938 811 955 12 15 11 21 -9 42 -13 14 -26 25 -29 25 -4 0 -113 -125 -242
-277z"/>
<path d="M4056 8591 c-11 -12 -15 -25 -10 -33 5 -7 222 -270 484 -584 261
-314 491 -590 511 -614 l35 -43 27 18 c15 9 27 23 27 30 0 7 -176 223 -392
481 -215 258 -445 535 -512 616 -67 81 -128 147 -137 147 -9 1 -24 -8 -33 -18z"/>
<path d="M6102 7785 c-123 -23 -272 -74 -384 -132 -466 -237 -778 -706 -815
-1222 l-6 -91 1448 0 1448 0 -6 98 c-27 439 -279 873 -656 1125 -141 95 -325
174 -496 213 -97 23 -433 28 -533 9z m388 -101 c201 -16 457 -117 631 -248
105 -79 252 -232 318 -330 125 -184 196 -374 236 -623 l7 -43 -1333 0 -1332 0
7 72 c3 39 15 106 26 148 125 489 514 882 987 996 108 26 259 43 333 38 25 -2
79 -6 120 -10z"/>
<path d="M3784 7339 c-8 -17 -12 -35 -7 -39 4 -5 143 -79 308 -165 165 -87
363 -191 441 -231 77 -41 145 -74 151 -74 11 0 39 57 32 64 -2 3 -94 51 -204
109 -110 58 -312 164 -449 236 -137 72 -250 131 -252 131 -2 0 -11 -14 -20
-31z"/>
<path d="M8385 7140 c-242 -126 -444 -231 -450 -233 -6 -2 -3 -19 8 -41 l17
-37 133 69 c72 38 277 145 455 237 177 92 322 169 322 171 0 12 -31 64 -38 63
-4 0 -205 -103 -447 -229z"/>
<path d="M2742 6373 l3 -38 993 -3 992 -2 0 40 0 40 -996 0 -995 0 3 -37z"/>
<path d="M7960 6370 l0 -40 995 0 995 0 0 40 0 40 -995 0 -995 0 0 -40z"/>
<path d="M3411 5988 c-5 -13 -179 -419 -386 -903 -207 -484 -379 -886 -382
-893 -4 -10 13 -12 77 -10 l83 3 33 75 c18 41 61 143 96 225 l64 150 499 3
c392 2 500 0 507 -10 4 -7 49 -111 100 -230 l92 -218 83 0 83 0 -13 33 c-8 17
-114 266 -237 552 -123 286 -258 601 -300 700 -42 99 -112 262 -155 363 l-78
182 -79 0 c-72 0 -79 -2 -87 -22z m132 -283 c110 -253 387 -909 387 -916 0 -5
-186 -9 -435 -9 l-435 0 9 23 c8 21 247 580 369 864 31 73 60 129 64 125 3 -4
22 -43 41 -87z"/>
<path d="M4480 5095 l0 -915 75 0 75 0 0 781 c0 465 4 779 9 777 10 -3 40 -42
420 -545 242 -320 277 -363 301 -363 24 0 66 52 369 450 189 247 347 452 352
456 5 3 9 -311 9 -775 l0 -781 80 0 80 0 0 915 0 916 -72 -3 -73 -3 -100 -132
c-55 -72 -171 -225 -257 -340 -287 -378 -383 -501 -390 -497 -4 3 -105 133
-225 290 -120 158 -286 375 -368 483 l-150 196 -68 3 -67 3 0 -916z"/>
<path d="M6470 5095 l0 -916 78 3 77 3 0 910 0 910 -77 3 -78 3 0 -916z"/>
<path d="M6850 5095 l0 -915 75 0 75 0 0 360 0 360 308 0 307 0 185 -302 c102
-166 200 -328 219 -360 l35 -58 88 0 c48 0 88 3 88 6 0 3 -91 153 -203 333
-271 435 -251 400 -235 406 231 81 338 185 388 380 67 263 -47 531 -273 639
-129 62 -162 66 -634 66 l-423 0 0 -915z m851 765 c76 -14 175 -65 227 -117
24 -24 58 -74 75 -111 30 -63 32 -74 32 -182 0 -108 -2 -119 -31 -180 -41 -84
-100 -142 -193 -188 l-75 -37 -365 0 -366 0 -3 400 c-1 220 0 406 3 412 6 16
613 18 696 3z"/>
<path d="M9071 5988 c-5 -13 -178 -419 -386 -903 -207 -484 -379 -886 -382
-893 -4 -10 13 -12 78 -10 l83 3 97 225 96 225 502 0 502 0 92 -215 c51 -118
96 -221 100 -227 9 -15 171 -19 165 -5 -1 5 -178 417 -392 915 l-389 907 -79
0 c-72 0 -79 -2 -87 -22z m162 -353 c173 -400 357 -837 357 -846 0 -5 -174 -9
-436 -9 -239 0 -433 3 -431 8 2 4 100 233 218 509 117 276 217 499 221 495 4
-4 36 -74 71 -157z"/>
</g>
</svg>
